<svg width="187" height="73" viewBox="0 0 187 73" fill="none" xmlns="http://www.w3.org/2000/svg">
<rect width="187" height="69" rx="16" fill="black"/>
<path d="M14.0107 46.4902C14.0107 41.8587 15.4859 37.6845 17.8457 34.751C21.2151 37.6052 23.4502 42.6132 23.4502 48.3145C23.4501 52.946 21.9742 57.1193 19.6143 60.0527C16.2454 57.1984 14.0108 52.1909 14.0107 46.4902Z" fill="#42F569"/>
<path d="M16.8135 23.375C16.8135 18.5316 18.9555 14.1885 22.3437 11.2412C25.7322 14.1885 27.875 18.5315 27.875 23.375C27.8749 28.2186 25.7323 32.5615 22.3438 35.5088C18.9554 32.5615 16.8136 28.2184 16.8135 23.375Z" fill="#D9D9D9"/>
<path d="M26.793 6.52344C32.4882 10.9154 36.1581 17.8055 36.1582 25.5537C36.1582 33.302 32.4882 40.1919 26.793 44.584C25.5841 43.6517 24.4677 42.6056 23.457 41.4639C27.4809 37.3691 29.9647 31.7561 29.9648 25.5615C29.9648 19.3633 27.4781 13.7469 23.4502 9.65137C24.4627 8.50662 25.5813 7.45785 26.793 6.52344Z" fill="#42F569"/>
<path d="M47.7938 24.6543H54.2488C55.5249 24.6543 56.5535 25.0156 57.3348 25.7383C58.116 26.4544 58.5066 27.4635 58.5066 28.7656C58.5066 29.8854 58.1583 30.862 57.4617 31.6953C56.7651 32.5221 55.6941 32.9355 54.2488 32.9355H49.7371V39H47.7938V24.6543ZM56.5438 28.7754C56.5438 27.7207 56.1531 27.0046 55.3719 26.627C54.9422 26.4251 54.353 26.3242 53.6043 26.3242H49.7371V31.2949H53.6043C54.4767 31.2949 55.1831 31.1094 55.7234 30.7383C56.2703 30.3672 56.5438 29.7129 56.5438 28.7754ZM61.5625 24.6543H63.3203V39H61.5625V24.6543ZM68.1145 36.2168C68.1145 36.7246 68.3 37.125 68.6711 37.418C69.0422 37.7109 69.4816 37.8574 69.9895 37.8574C70.6079 37.8574 71.2069 37.7142 71.7863 37.4277C72.7629 36.9525 73.2512 36.1745 73.2512 35.0938V33.6777C73.0363 33.8145 72.7596 33.9284 72.4211 34.0195C72.0826 34.1107 71.7505 34.1758 71.425 34.2148L70.3605 34.3516C69.7225 34.4362 69.244 34.5697 68.925 34.752C68.3846 35.0579 68.1145 35.5462 68.1145 36.2168ZM72.3723 32.6621C72.7759 32.61 73.0461 32.4408 73.1828 32.1543C73.2609 31.998 73.3 31.7734 73.3 31.4805C73.3 30.8815 73.0852 30.4486 72.6555 30.1816C72.2323 29.9082 71.6236 29.7715 70.8293 29.7715C69.9113 29.7715 69.2603 30.0189 68.8762 30.5137C68.6613 30.7871 68.5214 31.194 68.4563 31.7344H66.8156C66.8482 30.4453 67.2648 29.5501 68.0656 29.0488C68.8729 28.541 69.8072 28.2871 70.8684 28.2871C72.0988 28.2871 73.0982 28.5215 73.8664 28.9902C74.6281 29.459 75.009 30.1882 75.009 31.1777V37.2031C75.009 37.3854 75.0448 37.5319 75.1164 37.6426C75.1945 37.7533 75.354 37.8086 75.5949 37.8086C75.673 37.8086 75.7609 37.8053 75.8586 37.7988C75.9563 37.7858 76.0604 37.7695 76.1711 37.75V39.0488C75.8977 39.127 75.6893 39.1758 75.5461 39.1953C75.4029 39.2148 75.2076 39.2246 74.9602 39.2246C74.3547 39.2246 73.9152 39.0098 73.6418 38.5801C73.4986 38.3522 73.3977 38.0299 73.3391 37.6133C72.981 38.082 72.4667 38.4889 71.7961 38.834C71.1255 39.179 70.3866 39.3516 69.5793 39.3516C68.6092 39.3516 67.815 39.0586 67.1965 38.4727C66.5845 37.8802 66.2785 37.1413 66.2785 36.2559C66.2785 35.2858 66.5813 34.5339 67.1867 34C67.7922 33.4661 68.5865 33.1374 69.5695 33.0137L72.3723 32.6621ZM78.6996 28.541H80.3695V30.0254C80.8643 29.4134 81.3884 28.974 81.9418 28.707C82.4952 28.4401 83.1104 28.3066 83.7875 28.3066C85.2719 28.3066 86.2745 28.8242 86.7953 29.8594C87.0818 30.4258 87.225 31.2363 87.225 32.291V39H85.4379V32.4082C85.4379 31.7702 85.3435 31.2559 85.1547 30.8652C84.8422 30.2142 84.2758 29.8887 83.4555 29.8887C83.0388 29.8887 82.697 29.931 82.4301 30.0156C81.9483 30.1589 81.5251 30.4453 81.1605 30.875C80.8676 31.2201 80.6755 31.5781 80.5844 31.9492C80.4997 32.3138 80.4574 32.8379 80.4574 33.5215V39H78.6996V28.541ZM90.984 25.6211H92.7613V28.541H94.4313V29.9766H92.7613V36.8027C92.7613 37.1673 92.885 37.4115 93.1324 37.5352C93.2691 37.6068 93.497 37.6426 93.816 37.6426C93.9007 37.6426 93.9918 37.6426 94.0895 37.6426C94.1871 37.6361 94.301 37.6263 94.4313 37.6133V39C94.2294 39.0586 94.0178 39.1009 93.7965 39.127C93.5816 39.153 93.3473 39.166 93.0934 39.166C92.273 39.166 91.7164 38.9577 91.4234 38.541C91.1305 38.1178 90.984 37.571 90.984 36.9004V29.9766H89.568V28.541H90.984V25.6211ZM104.596 33.1211L102.419 26.7832L100.104 33.1211H104.596ZM101.403 24.6543H103.6L108.805 39H106.677L105.221 34.7031H99.5477L97.9949 39H96.0027L101.403 24.6543ZM115.553 37.8184C116.373 37.8184 117.053 37.4766 117.594 36.793C118.141 36.1029 118.414 35.0742 118.414 33.707C118.414 32.8737 118.294 32.1576 118.053 31.5586C117.597 30.4062 116.764 29.8301 115.553 29.8301C114.335 29.8301 113.502 30.4388 113.053 31.6562C112.812 32.3073 112.691 33.1341 112.691 34.1367C112.691 34.944 112.812 35.6309 113.053 36.1973C113.508 37.278 114.342 37.8184 115.553 37.8184ZM111.002 28.5898H112.711V29.9766C113.062 29.5013 113.447 29.1335 113.863 28.873C114.456 28.4824 115.152 28.2871 115.953 28.2871C117.138 28.2871 118.144 28.7428 118.971 29.6543C119.798 30.5592 120.211 31.8548 120.211 33.541C120.211 35.8197 119.615 37.4473 118.424 38.4238C117.669 39.0423 116.79 39.3516 115.787 39.3516C114.999 39.3516 114.339 39.179 113.805 38.834C113.492 38.6387 113.144 38.3034 112.76 37.8281V43.1699H111.002V28.5898ZM127.486 37.8184C128.306 37.8184 128.986 37.4766 129.527 36.793C130.073 36.1029 130.347 35.0742 130.347 33.707C130.347 32.8737 130.226 32.1576 129.986 31.5586C129.53 30.4062 128.696 29.8301 127.486 29.8301C126.268 29.8301 125.435 30.4388 124.986 31.6562C124.745 32.3073 124.624 33.1341 124.624 34.1367C124.624 34.944 124.745 35.6309 124.986 36.1973C125.441 37.278 126.275 37.8184 127.486 37.8184ZM122.935 28.5898H124.644V29.9766C124.995 29.5013 125.379 29.1335 125.796 28.873C126.389 28.4824 127.085 28.2871 127.886 28.2871C129.071 28.2871 130.077 28.7428 130.904 29.6543C131.73 30.5592 132.144 31.8548 132.144 33.541C132.144 35.8197 131.548 37.4473 130.357 38.4238C129.601 39.0423 128.723 39.3516 127.72 39.3516C126.932 39.3516 126.271 39.179 125.738 38.834C125.425 38.6387 125.077 38.3034 124.693 37.8281V43.1699H122.935V28.5898Z" fill="#D9D9D9"/>
</svg>
